# xmcd
#
# Track frame offsets:
#	150
#	23906
#	40432
#	59258
#	79726
#	99468
#	122998
#	142331
#	158242
#	181454
#	196625
#	215677
#	234914
#	252006
#	275195
#	289661
#
# Disc length: 4049 seconds
#
# Revision: 1
# Processed by: cddbd v1.5.1PL0 Copyright (c) Steve Scherf et al.
# Submitted via: EasyCDDAExtractor 8.2.1.1
#
DISCID=ee0fcf10
DTITLE=The Sound Factory - Be My Valentine
DYEAR=1999
DGENRE=Romantic
TTITLE0=I Believe I Can Fly
TTITLE1=As Long As You Love Me
TTITLE2=The Power Of Goodbye
TTITLE3=From This Moment On
TTITLE4=No Matter What
TTITLE5=No Negrets
TTITLE6=Believe
TTITLE7=One More Time
TTITLE8=Together Again
TTITLE9=Big Big World
TTITLE10=I Will Get There
TTITLE11=The Air That I Breathe
TTITLE12=Can't Take My Eyes Off You
TTITLE13=Fozen
TTITLE14=Picture Of You
TTITLE15=She
EXTD=
EXTT0=
EXTT1=
EXTT2=
EXTT3=
EXTT4=
EXTT5=
EXTT6=
EXTT7=
EXTT8=
EXTT9=
EXTT10=
EXTT11=
EXTT12=
EXTT13=
EXTT14=
EXTT15=
PLAYORDER=
